<svg width="60" height="60" viewBox="0 0 60 60" fill="none" xmlns="http://www.w3.org/2000/svg">
<path d="M42.4237 21.9923C46.1277 24.6495 50.6653 26.213 55.5662 26.213V16.7487C54.6387 16.7489 53.7136 16.6518 52.8062 16.4589V23.9086C47.9057 23.9086 43.3687 22.3452 39.6636 19.6882V39.0021C39.6636 48.6639 31.859 56.4958 22.2321 56.4958C18.6401 56.4958 15.3015 55.406 12.5281 53.5369C15.6935 56.785 20.1078 58.7999 24.9916 58.7999C34.6191 58.7999 42.424 50.9681 42.424 41.3059V21.9923H42.4237ZM45.8284 12.444C43.9355 10.3685 42.6926 7.68642 42.4237 4.72122V3.50391H39.8081C40.4665 7.27268 42.7121 10.4925 45.8284 12.444ZM18.6171 46.1227C17.5595 44.7311 16.9879 43.0286 16.9905 41.2782C16.9905 36.8592 20.5603 33.2763 24.9644 33.2763C25.7852 33.2761 26.601 33.4022 27.3832 33.6513V23.9754C26.4691 23.8497 25.5466 23.7964 24.6244 23.8159V31.3471C23.8416 31.0981 23.0254 30.9715 22.2044 30.9723C17.8002 30.9723 14.2307 34.5549 14.2307 38.9744C14.2307 42.0993 16.015 44.8048 18.6171 46.1227Z" fill="white"/>
<path d="M39.6636 19.688C43.3686 22.345 47.9056 23.9084 52.8061 23.9084V16.4587C50.0707 15.8739 47.6491 14.4394 45.8284 12.444C42.7118 10.4923 40.4664 7.27248 39.8081 3.50391H32.9378V41.3055C32.9223 45.7123 29.3586 49.2807 24.9639 49.2807C22.3742 49.2807 20.0735 48.0418 18.6164 46.1227C16.0145 44.8048 14.2302 42.0992 14.2302 38.9746C14.2302 34.5555 17.7998 30.9725 22.2039 30.9725C23.0477 30.9725 23.861 31.1044 24.6239 31.3473V23.8161C15.1662 24.0122 7.55981 31.7676 7.55981 41.3057C7.55981 46.067 9.45397 50.3833 12.5282 53.5371C15.3016 55.406 18.6402 56.496 22.2323 56.496C31.8594 56.496 39.6638 48.6637 39.6638 39.0021V19.688H39.6636Z" fill="white"/>
<path d="M52.8061 16.4587V14.4444C50.3395 14.4481 47.9212 13.7549 45.8284 12.4439C47.681 14.4794 50.1205 15.8829 52.8061 16.4587ZM39.8081 3.50397C39.7453 3.1438 39.6971 2.78125 39.6636 2.41733V1.20001H30.1777V39.002C30.1625 43.4083 26.5991 46.9766 22.204 46.9766C20.9136 46.9766 19.6954 46.6692 18.6165 46.123C20.0736 48.0419 22.3743 49.2805 24.964 49.2805C29.3583 49.2805 32.9226 45.7126 32.9379 41.3057V3.50397H39.8081ZM24.6244 23.8162V21.6718C23.8318 21.563 23.0326 21.5085 22.2325 21.5089C12.6046 21.5087 4.80005 29.3409 4.80005 39.002C4.80005 45.0589 7.86739 50.3968 12.5285 53.5368C9.45422 50.3832 7.56007 46.0667 7.56007 41.3055C7.56007 31.7677 15.1662 24.0123 24.6244 23.8162Z" fill="white"/>
</svg>
